<?xml version="1.0" encoding="UTF-8" standalone="no"?>
<!-- Generator: Adobe Illustrator 15.1.0, SVG Export Plug-In . SVG Version: 6.00 Build 0)  -->

<svg
   version="1.1"
   id="Layer_1"
   x="0px"
   y="0px"
   width="326.88901"
   height="124.491"
   viewBox="0 0 326.88899 124.491"
   enable-background="new 0 0 595.28 841.89"
   xml:space="preserve"
   sodipodi:docname="anegostudios.svg"
   inkscape:version="1.1.2 (b8e25be833, 2022-02-05)"
   xmlns:inkscape="http://www.inkscape.org/namespaces/inkscape"
   xmlns:sodipodi="http://sodipodi.sourceforge.net/DTD/sodipodi-0.dtd"
   xmlns:xlink="http://www.w3.org/1999/xlink"
   xmlns="http://www.w3.org/2000/svg"
   xmlns:svg="http://www.w3.org/2000/svg"><defs
   id="defs109" /><sodipodi:namedview
   id="namedview107"
   pagecolor="#ffffff"
   bordercolor="#666666"
   borderopacity="1.0"
   inkscape:pageshadow="2"
   inkscape:pageopacity="0.0"
   inkscape:pagecheckerboard="0"
   showgrid="false"
   inkscape:zoom="2.171305"
   inkscape:cx="162.80532"
   inkscape:cy="114.67758"
   inkscape:window-width="3840"
   inkscape:window-height="2066"
   inkscape:window-x="-11"
   inkscape:window-y="-11"
   inkscape:window-maximized="1"
   inkscape:current-layer="Layer_1" />
<g
   id="g104"
   transform="translate(-134.946,-306.153)">
	<defs
   id="defs61">
		<rect
   id="SVGID_1_"
   width="595.28003"
   height="841.89001"
   x="0"
   y="0" />
	</defs>
	<clipPath
   id="SVGID_2_">
		<use
   xlink:href="#SVGID_1_"
   overflow="visible"
   id="use63"
   x="0"
   y="0"
   width="100%"
   height="100%" />
	</clipPath>
	<path
   clip-path="url(#SVGID_2_)"
   fill="#3c2415"
   d="m 139.915,328.517 v 12.425 h -4.969 v -17.395 c 0,-4.804 1.698,-8.903 5.093,-12.3 3.397,-3.395 7.496,-5.094 12.301,-5.094 4.804,0 8.904,1.699 12.3,5.094 3.395,3.397 5.094,7.496 5.094,12.3 v 17.395 h -4.97 v -12.425 z m 24.849,-4.97 c 0,-3.429 -1.213,-6.356 -3.64,-8.784 -2.427,-2.426 -5.355,-3.64 -8.784,-3.64 -3.43,0 -6.357,1.214 -8.784,3.64 -2.427,2.428 -3.641,5.355 -3.641,8.784 z"
   id="path66" />
	<path
   clip-path="url(#SVGID_2_)"
   fill="#3c2415"
   d="m 177.188,328.517 v 12.425 h -4.969 v -12.425 c 0,-3.429 1.213,-6.356 3.641,-8.783 2.426,-2.427 5.354,-3.641 8.783,-3.641 3.43,0 6.358,1.214 8.784,3.641 2.427,2.427 3.641,5.354 3.641,8.783 v 12.425 h -4.97 v -12.425 c 0,-2.054 -0.729,-3.81 -2.186,-5.268 -1.458,-1.458 -3.215,-2.186 -5.269,-2.186 -2.055,0 -3.809,0.728 -5.267,2.186 -1.459,1.458 -2.188,3.214 -2.188,5.268"
   id="path68" />
	<path
   clip-path="url(#SVGID_2_)"
   fill="#3c2415"
   d="m 217.518,333.486 h 5.889 c -0.612,1.392 -1.49,2.659 -2.634,3.802 -2.435,2.435 -5.367,3.653 -8.796,3.653 -3.429,0 -6.357,-1.214 -8.784,-3.64 -2.427,-2.427 -3.64,-5.355 -3.64,-8.785 0,-3.428 1.213,-6.356 3.64,-8.783 2.427,-2.427 5.355,-3.64 8.784,-3.64 3.429,0 6.357,1.213 8.784,3.64 2.426,2.427 3.64,5.355 3.64,8.783 0,0.863 -0.074,1.691 -0.223,2.486 H 204.92 c 0.364,1.027 0.961,1.955 1.789,2.783 1.458,1.457 3.214,2.186 5.268,2.186 2.054,0 3.81,-0.729 5.268,-2.186 0.1,-0.1 0.19,-0.199 0.273,-0.299 m 1.516,-7.454 c -0.364,-1.027 -0.961,-1.955 -1.789,-2.783 -1.458,-1.458 -3.214,-2.188 -5.268,-2.188 -2.054,0 -3.81,0.729 -5.268,2.188 -0.828,0.828 -1.425,1.756 -1.789,2.783 z"
   id="path70" />
	<path
   clip-path="url(#SVGID_2_)"
   fill="#3c2415"
   d="m 251.735,328.517 v 9.939 c 0,3.43 -1.215,6.358 -3.641,8.785 -2.427,2.426 -5.355,3.639 -8.784,3.639 v -4.968 c 2.054,0 3.81,-0.73 5.268,-2.188 1.458,-1.457 2.187,-3.204 2.187,-5.242 -2.138,1.639 -4.622,2.46 -7.455,2.46 -3.43,0 -6.357,-1.214 -8.784,-3.641 -2.427,-2.427 -3.64,-5.354 -3.64,-8.784 0,-3.429 1.213,-6.356 3.64,-8.783 2.427,-2.427 5.354,-3.641 8.784,-3.641 3.429,0 6.357,1.214 8.784,3.641 2.426,2.427 3.641,5.354 3.641,8.783 m -19.88,0 c 0,2.055 0.729,3.811 2.188,5.269 1.457,1.457 3.212,2.186 5.267,2.186 2.054,0 3.81,-0.729 5.268,-2.186 1.458,-1.458 2.187,-3.214 2.187,-5.269 0,-2.054 -0.729,-3.81 -2.187,-5.268 -1.458,-1.458 -3.214,-2.186 -5.268,-2.186 -2.055,0 -3.81,0.728 -5.267,2.186 -1.459,1.458 -2.188,3.214 -2.188,5.268"
   id="path72" />
	<path
   clip-path="url(#SVGID_2_)"
   fill="#3c2415"
   d="m 275.427,319.733 c 2.427,2.427 3.641,5.354 3.641,8.783 0,3.43 -1.214,6.358 -3.641,8.784 -2.427,2.427 -5.354,3.641 -8.784,3.641 -3.429,0 -6.357,-1.214 -8.783,-3.641 -2.428,-2.426 -3.641,-5.354 -3.641,-8.784 0,-3.429 1.213,-6.356 3.641,-8.783 2.426,-2.427 5.354,-3.641 8.783,-3.641 3.43,0.001 6.357,1.215 8.784,3.641 m -8.784,1.33 c -2.055,0 -3.81,0.729 -5.268,2.187 -1.458,1.458 -2.186,3.213 -2.186,5.267 0,2.055 0.728,3.811 2.186,5.269 1.458,1.457 3.213,2.186 5.268,2.186 2.055,0 3.811,-0.729 5.269,-2.186 1.457,-1.458 2.186,-3.214 2.186,-5.269 0,-2.054 -0.729,-3.809 -2.186,-5.267 -1.458,-1.458 -3.214,-2.187 -5.269,-2.187"
   id="path74" />
	<path
   clip-path="url(#SVGID_2_)"
   fill="#3c2415"
   d="m 304.115,306.153 h 24.849 v 4.97 h -24.849 c -1.376,0 -2.548,0.484 -3.517,1.453 -0.968,0.969 -1.454,2.141 -1.454,3.516 0,1.375 0.486,2.547 1.454,3.516 0.969,0.969 2.141,1.454 3.517,1.454 h 14.908 c 2.75,0 5.094,0.969 7.032,2.907 1.939,1.938 2.908,4.283 2.908,7.033 0,2.75 -0.969,5.093 -2.908,7.032 -1.938,1.938 -4.282,2.907 -7.032,2.907 h -24.848 v -4.97 h 24.848 c 1.375,0 2.547,-0.485 3.518,-1.454 0.969,-0.968 1.454,-2.14 1.454,-3.515 0,-1.375 -0.485,-2.547 -1.454,-3.517 -0.971,-0.969 -2.143,-1.453 -3.518,-1.453 h -14.908 c -2.75,0 -5.095,-0.969 -7.032,-2.907 -1.938,-1.939 -2.907,-4.283 -2.907,-7.033 0,-2.75 0.969,-5.093 2.907,-7.032 1.938,-1.937 4.282,-2.907 7.032,-2.907"
   id="path76" />
	<path
   clip-path="url(#SVGID_2_)"
   fill="#3c2415"
   d="m 331.448,306.153 h 4.971 v 9.939 h 7.454 v 4.97 h -7.454 v 7.454 c 0,2.055 0.728,3.811 2.186,5.269 1.458,1.457 3.214,2.186 5.269,2.186 v 4.97 c -3.429,0 -6.357,-1.214 -8.783,-3.641 -2.427,-2.426 -3.642,-5.354 -3.642,-8.784 v -22.363 z"
   id="path78" />
	<path
   clip-path="url(#SVGID_2_)"
   fill="#3c2415"
   d="m 353.515,333.785 c 1.458,1.457 3.214,2.187 5.268,2.187 2.054,0 3.811,-0.73 5.268,-2.187 1.458,-1.458 2.188,-3.214 2.188,-5.269 v -12.423 h 4.969 v 12.423 c 0,3.43 -1.213,6.358 -3.639,8.785 -2.428,2.426 -5.356,3.64 -8.785,3.64 -3.429,0 -6.357,-1.214 -8.784,-3.64 -2.427,-2.427 -3.64,-5.355 -3.64,-8.785 v -12.423 h 4.969 v 12.423 c -0.002,2.055 0.728,3.811 2.186,5.269"
   id="path80" />
	<path
   clip-path="url(#SVGID_2_)"
   fill="#3c2415"
   d="m 398.541,328.517 c 0,3.43 -1.214,6.358 -3.642,8.784 -2.427,2.427 -5.354,3.641 -8.784,3.641 -3.429,0 -6.356,-1.214 -8.783,-3.641 -2.428,-2.426 -3.641,-5.354 -3.641,-8.784 0,-3.429 1.213,-6.356 3.641,-8.783 2.427,-2.427 5.354,-3.641 8.783,-3.641 2.833,0 5.318,0.82 7.455,2.46 v -12.399 h 4.971 z m -12.426,-7.454 c -2.054,0 -3.811,0.729 -5.268,2.187 -1.459,1.458 -2.186,3.213 -2.186,5.267 0,2.055 0.727,3.811 2.186,5.269 1.457,1.457 3.214,2.186 5.268,2.186 2.056,0 3.812,-0.729 5.27,-2.186 1.457,-1.458 2.186,-3.214 2.186,-5.269 0,-2.054 -0.729,-3.809 -2.186,-5.267 -1.458,-1.458 -3.214,-2.187 -5.27,-2.187"
   id="path82" />
	<path
   clip-path="url(#SVGID_2_)"
   fill="#3c2415"
   d="m 401.025,306.153 h 4.97 v 4.97 h -4.97 z m 4.97,34.788 h -4.97 v -24.849 h 4.97 z"
   id="path84" />
	<path
   clip-path="url(#SVGID_2_)"
   fill="#3c2415"
   d="m 429.688,319.733 c 2.428,2.427 3.642,5.354 3.642,8.783 0,3.43 -1.214,6.358 -3.642,8.784 -2.427,2.427 -5.354,3.641 -8.783,3.641 -3.43,0 -6.357,-1.214 -8.784,-3.641 -2.429,-2.426 -3.641,-5.354 -3.641,-8.784 0,-3.429 1.212,-6.356 3.641,-8.783 2.427,-2.427 5.354,-3.641 8.784,-3.641 3.428,0.001 6.356,1.215 8.783,3.641 m -8.784,1.33 c -2.055,0 -3.812,0.729 -5.269,2.187 -1.459,1.458 -2.187,3.213 -2.187,5.267 0,2.055 0.728,3.811 2.187,5.269 1.457,1.457 3.214,2.186 5.269,2.186 2.054,0 3.811,-0.729 5.269,-2.186 1.457,-1.458 2.186,-3.214 2.186,-5.269 0,-2.054 -0.729,-3.809 -2.186,-5.267 -1.458,-1.458 -3.215,-2.187 -5.269,-2.187"
   id="path86" />
	<path
   clip-path="url(#SVGID_2_)"
   fill="#3c2415"
   d="m 443.268,316.093 h 17.395 v 4.97 h -17.395 c -0.68,0 -1.265,0.244 -1.753,0.732 -0.487,0.489 -0.731,1.073 -0.731,1.752 0,0.68 0.244,1.264 0.731,1.752 0.488,0.489 1.073,0.733 1.753,0.733 h 9.939 c 2.054,0 3.811,0.729 5.268,2.187 1.457,1.458 2.188,3.214 2.188,5.268 0,2.054 -0.73,3.81 -2.188,5.268 -1.458,1.458 -3.214,2.187 -5.268,2.187 h -17.394 v -4.97 h 17.394 c 0.679,0 1.263,-0.245 1.751,-0.733 0.489,-0.489 0.734,-1.073 0.734,-1.752 0,-0.679 -0.245,-1.263 -0.734,-1.752 -0.488,-0.489 -1.072,-0.733 -1.751,-0.733 h -9.939 c -2.054,0 -3.811,-0.729 -5.269,-2.186 -1.458,-1.458 -2.186,-3.214 -2.186,-5.269 0,-2.054 0.728,-3.81 2.186,-5.267 1.458,-1.458 3.215,-2.187 5.269,-2.187"
   id="path88" />
	<polygon
   clip-path="url(#SVGID_2_)"
   fill="#f3903f"
   points="134.946,386.275 461.835,391.948 461.835,380.367 369.327,374.61 134.946,377.962 "
   id="polygon90" />
	<polygon
   clip-path="url(#SVGID_2_)"
   fill="#87c540"
   points="461.835,376.945 461.835,357.21 144.734,357.21 "
   id="polygon92" />
	<polygon
   clip-path="url(#SVGID_2_)"
   fill="#87c540"
   points="324.691,371.832 134.946,360.023 134.946,374.545 "
   id="polygon94" />
	<polygon
   clip-path="url(#SVGID_2_)"
   fill="#e89524"
   points="461.834,395.363 315.917,392.832 251.972,397.195 461.834,403.094 "
   id="polygon96" />
	<polygon
   clip-path="url(#SVGID_2_)"
   fill="#8b5e3c"
   points="134.946,413.424 461.835,409.487 461.835,406.513 222.535,399.203 134.946,405.178 "
   id="polygon98" />
	<polygon
   clip-path="url(#SVGID_2_)"
   fill="#603913"
   points="461.835,412.903 134.946,416.841 134.946,430.644 461.835,430.644 "
   id="polygon100" />
	<polygon
   clip-path="url(#SVGID_2_)"
   fill="#bd6027"
   points="275.913,392.137 134.946,389.692 134.946,401.754 "
   id="polygon102" />
</g>
</svg>
